# xmcd CD database file
#
# Track frame offsets:
#	150
#	12525
#	29250
#	45600
#	61050
#	75300
#	89700
#	106650
#	125325
#	144600
#	162525
#	181200
#
# Disc length: 2644 seconds
#
# Revision: 0
# Processed by: cddbd v1.5.1PL0 Copyright (c) Steve Scherf et al.
# Submitted via: CDex 1.51
#
DISCID=960a520c
DTITLE=Maggie Brandon - You Come To Me
DYEAR=2002
DGENRE=Country
TTITLE0=Refuge of My Cadillac
TTITLE1=You Come to Me 
TTITLE2=Lighthouse
TTITLE3=Take Care of Your Heart 
TTITLE4=This I Promise You for Life 
TTITLE5=Tonight I Saw an Angel 
TTITLE6=Tryin 
TTITLE7=Thank God 
TTITLE8=Ain't Nothin' New
TTITLE9=Take Me To Heart
TTITLE10=Angel 
TTITLE11=You Are To Me 
EXTD=YEAR: 2002
EXTT0=
EXTT1=
EXTT2=
EXTT3=
EXTT4=
EXTT5=
EXTT6=
EXTT7=
EXTT8=
EXTT9=
EXTT10=
EXTT11=
PLAYORDER=
